<svg width="84" height="88" viewBox="0 0 84 88" fill="none" xmlns="http://www.w3.org/2000/svg">
<path d="M3.49049 67.2927C3.05485 67.3225 2.62626 67.5168 2.125 67.7886V34.5V25.2503C2.62438 25.6121 3.0559 25.8162 3.49916 25.8219C3.98034 25.8281 4.4466 25.6003 5.0003 25.1603C5.66917 25.6898 6.2157 25.9701 6.77118 25.9673C7.32307 25.9645 7.85332 25.6824 8.49078 25.1689C9.09531 25.7748 9.58746 26.0714 10.0798 26.0476C10.5612 26.0243 10.9993 25.6952 11.5008 25.1796C12.0525 25.7355 12.5128 26.0424 12.9964 26.04C13.4811 26.0375 13.9456 25.7243 14.5052 25.1716C15.1909 25.7695 15.7473 26.0379 16.3059 26.0072C16.8209 25.9788 17.3099 25.6965 17.875 25.2587V34.5V67.707C17.5097 67.3854 17.1721 67.2417 16.8058 67.2643C16.4009 67.2892 15.988 67.518 15.4954 67.8518C14.8349 67.4615 14.3771 67.279 13.8701 67.2941C13.3658 67.3091 12.8261 67.5205 12.0024 67.8636C10.7911 67.3152 9.58134 67.2268 8.25563 67.8584C7.73198 67.5525 7.28682 67.3231 6.78566 67.2884C6.27886 67.2533 5.73449 67.4175 5.00792 67.8494C4.43827 67.4264 3.96984 67.26 3.49049 67.2927Z" fill="#CFFFCF" stroke="#062341" stroke-width="0.25"/>
<path d="M3 27L3 33.6615" stroke="#062341" stroke-width="0.25"/>
<path d="M9 27V33.6615" stroke="#062341" stroke-width="0.25"/>
<path d="M4 27V33.6615" stroke="#062341" stroke-width="0.25"/>
<path d="M10 27V33.6615" stroke="#062341" stroke-width="0.25"/>
<path d="M5 27V33.6615" stroke="#062341" stroke-width="0.25"/>
<path d="M11 27V33.6615" stroke="#062341" stroke-width="0.25"/>
<path d="M6 27V33.6615" stroke="#062341" stroke-width="0.25"/>
<path d="M12 27V33.6615" stroke="#062341" stroke-width="0.25"/>
<path d="M7 27V33.6615" stroke="#062341" stroke-width="0.25"/>
<path d="M13 27V33.6615" stroke="#062341" stroke-width="0.25"/>
<path d="M8 27V33.6615" stroke="#062341" stroke-width="0.25"/>
<path d="M14 27V33.6615" stroke="#062341" stroke-width="0.25"/>
<path d="M17 27V33.6615" stroke="#062341" stroke-width="0.25"/>
<path d="M16 27V33.6615" stroke="#062341" stroke-width="0.25"/>
<path d="M15 27V33.6615" stroke="#062341" stroke-width="0.25"/>
<rect x="24" y="11" width="16" height="57" fill="#E2DEFF"/>
<rect x="46" y="3" width="16" height="65" fill="#D7EBFF"/>
<rect x="68" y="21" width="16" height="47" fill="#FFD6F7"/>
<path d="M10.438 57.9C10.938 57.9 11.358 57.84 11.698 57.72C12.038 57.6 12.308 57.44 12.508 57.24C12.7146 57.04 12.8613 56.8067 12.948 56.54C13.0413 56.2733 13.088 55.99 13.088 55.69C13.088 55.3767 13.038 55.0967 12.938 54.85C12.838 54.5967 12.6813 54.3833 12.468 54.21C12.2546 54.03 11.978 53.8933 11.638 53.8C11.3046 53.7067 10.9013 53.66 10.428 53.66H7.71797V57.9H10.438ZM7.71797 47.62V51.8H9.85797C10.778 51.8 11.4713 51.6333 11.938 51.3C12.4113 50.9667 12.648 50.4367 12.648 49.71C12.648 48.9567 12.4346 48.42 12.008 48.1C11.5813 47.78 10.9146 47.62 10.008 47.62H7.71797ZM10.008 45.54C10.9546 45.54 11.7646 45.63 12.438 45.81C13.1113 45.99 13.6613 46.2467 14.088 46.58C14.5213 46.9133 14.838 47.3167 15.038 47.79C15.238 48.2633 15.338 48.7967 15.338 49.39C15.338 49.73 15.288 50.0567 15.188 50.37C15.088 50.6767 14.9313 50.9667 14.718 51.24C14.5113 51.5067 14.2446 51.75 13.918 51.97C13.598 52.19 13.2146 52.3767 12.768 52.53C14.7546 52.9767 15.748 54.05 15.748 55.75C15.748 56.3633 15.6313 56.93 15.398 57.45C15.1646 57.97 14.8246 58.42 14.378 58.8C13.9313 59.1733 13.3813 59.4667 12.728 59.68C12.0746 59.8933 11.328 60 10.488 60H5.02797V45.54H10.008Z" fill="#062341"/>
<path d="M17.1677 69.67V84H15.4677V73.47C15.4677 73.33 15.4711 73.18 15.4777 73.02C15.4911 72.86 15.5044 72.6967 15.5177 72.53L10.5977 81.49C10.4444 81.79 10.2111 81.94 9.89773 81.94H9.61773C9.3044 81.94 9.07107 81.79 8.91773 81.49L3.89773 72.49C3.93773 72.8433 3.95773 73.17 3.95773 73.47V84H2.25773V69.67H3.68773C3.86107 69.67 3.9944 69.6867 4.08773 69.72C4.18107 69.7533 4.27107 69.8467 4.35773 70L9.30774 78.82C9.38773 78.98 9.4644 79.1467 9.53774 79.32C9.61773 79.4933 9.69107 79.67 9.75773 79.85C9.8244 79.67 9.8944 79.4933 9.96773 79.32C10.0411 79.14 10.1211 78.97 10.2077 78.81L15.0677 70C15.1477 69.8467 15.2344 69.7533 15.3277 69.72C15.4277 69.6867 15.5644 69.67 15.7377 69.67H17.1677ZM28.9176 73.87L23.2676 86.99C23.2076 87.1233 23.1309 87.23 23.0376 87.31C22.9509 87.39 22.8142 87.43 22.6276 87.43H21.3076L23.1576 83.41L18.9776 73.87H20.5176C20.6709 73.87 20.7909 73.91 20.8776 73.99C20.9709 74.0633 21.0342 74.1467 21.0676 74.24L23.7776 80.62C23.8842 80.9 23.9742 81.1933 24.0476 81.5C24.1409 81.1867 24.2409 80.89 24.3476 80.61L26.9776 74.24C27.0176 74.1333 27.0842 74.0467 27.1776 73.98C27.2776 73.9067 27.3876 73.87 27.5076 73.87H28.9176ZM44.379 82.42L44.369 84H35.539V69.67H44.369V71.25H37.479V76.01H43.059V77.53H37.479V82.42H44.379ZM54.8732 73.87L50.7432 84H49.1432L45.0132 73.87H46.4632C46.6099 73.87 46.7299 73.9067 46.8232 73.98C46.9165 74.0533 46.9799 74.14 47.0132 74.24L49.5832 80.76C49.6632 81.0067 49.7332 81.2467 49.7932 81.48C49.8532 81.7133 49.9099 81.9467 49.9632 82.18C50.0165 81.9467 50.0732 81.7133 50.1332 81.48C50.1932 81.2467 50.2665 81.0067 50.3532 80.76L52.9532 74.24C52.9932 74.1333 53.0599 74.0467 53.1532 73.98C53.2465 73.9067 53.3565 73.87 53.4832 73.87H54.8732ZM63.0123 77.83C63.0123 77.4167 62.9523 77.04 62.8323 76.7C62.7189 76.3533 62.5489 76.0567 62.3223 75.81C62.1023 75.5567 61.8323 75.3633 61.5123 75.23C61.1923 75.09 60.8289 75.02 60.4223 75.02C59.5689 75.02 58.8923 75.27 58.3923 75.77C57.8989 76.2633 57.5923 76.95 57.4723 77.83H63.0123ZM64.4523 82.58C64.2323 82.8467 63.9689 83.08 63.6623 83.28C63.3556 83.4733 63.0256 83.6333 62.6723 83.76C62.3256 83.8867 61.9656 83.98 61.5923 84.04C61.2189 84.1067 60.8489 84.14 60.4823 84.14C59.7823 84.14 59.1356 84.0233 58.5423 83.79C57.9556 83.55 57.4456 83.2033 57.0123 82.75C56.5856 82.29 56.2523 81.7233 56.0123 81.05C55.7723 80.3767 55.6523 79.6033 55.6523 78.73C55.6523 78.0233 55.7589 77.3633 55.9723 76.75C56.1923 76.1367 56.5056 75.6067 56.9123 75.16C57.3189 74.7067 57.8156 74.3533 58.4023 74.1C58.9889 73.84 59.6489 73.71 60.3823 73.71C60.9889 73.71 61.5489 73.8133 62.0623 74.02C62.5823 74.22 63.0289 74.5133 63.4023 74.9C63.7823 75.28 64.0789 75.7533 64.2923 76.32C64.5056 76.88 64.6123 77.52 64.6123 78.24C64.6123 78.52 64.5823 78.7067 64.5223 78.8C64.4623 78.8933 64.3489 78.94 64.1823 78.94H57.4123C57.4323 79.58 57.5189 80.1367 57.6723 80.61C57.8323 81.0833 58.0523 81.48 58.3323 81.8C58.6123 82.1133 58.9456 82.35 59.3323 82.51C59.7189 82.6633 60.1523 82.74 60.6323 82.74C61.0789 82.74 61.4623 82.69 61.7823 82.59C62.1089 82.4833 62.3889 82.37 62.6223 82.25C62.8556 82.13 63.0489 82.02 63.2023 81.92C63.3623 81.8133 63.4989 81.76 63.6123 81.76C63.7589 81.76 63.8723 81.8167 63.9523 81.93L64.4523 82.58ZM68.4787 75.34C68.6987 75.0933 68.932 74.87 69.1787 74.67C69.4253 74.47 69.6853 74.3 69.9587 74.16C70.2387 74.0133 70.532 73.9033 70.8387 73.83C71.152 73.75 71.4887 73.71 71.8487 73.71C72.402 73.71 72.8887 73.8033 73.3087 73.99C73.7353 74.17 74.0887 74.43 74.3687 74.77C74.6553 75.1033 74.872 75.5067 75.0187 75.98C75.1653 76.4533 75.2387 76.9767 75.2387 77.55V84H73.4487V77.55C73.4487 76.7833 73.272 76.19 72.9187 75.77C72.572 75.3433 72.042 75.13 71.3287 75.13C70.802 75.13 70.3087 75.2567 69.8487 75.51C69.3953 75.7633 68.9753 76.1067 68.5887 76.54V84H66.7987V73.87H67.8687C68.122 73.87 68.2787 73.9933 68.3387 74.24L68.4787 75.34ZM80.9243 84.16C80.1243 84.16 79.5076 83.9367 79.0743 83.49C78.6476 83.0433 78.4343 82.4 78.4343 81.56V75.36H77.2143C77.1076 75.36 77.0176 75.33 76.9443 75.27C76.871 75.2033 76.8343 75.1033 76.8343 74.97V74.26L78.4943 74.05L78.9043 70.92C78.9243 70.82 78.9676 70.74 79.0343 70.68C79.1076 70.6133 79.201 70.58 79.3143 70.58H80.2143V74.07H83.1443V75.36H80.2143V81.44C80.2143 81.8667 80.3176 82.1833 80.5243 82.39C80.731 82.5967 80.9976 82.7 81.3243 82.7C81.511 82.7 81.671 82.6767 81.8043 82.63C81.9443 82.5767 82.0643 82.52 82.1643 82.46C82.2643 82.4 82.3476 82.3467 82.4143 82.3C82.4876 82.2467 82.551 82.22 82.6043 82.22C82.6976 82.22 82.781 82.2767 82.8543 82.39L83.3743 83.24C83.0676 83.5267 82.6976 83.7533 82.2643 83.92C81.831 84.08 81.3843 84.16 80.9243 84.16Z" fill="#062341"/>
<path d="M74.8482 45.14V53.65H75.3082C75.4749 53.65 75.6049 53.63 75.6982 53.59C75.7982 53.5433 75.8982 53.4533 75.9982 53.32L78.5482 50.17C78.6549 50.03 78.7715 49.9233 78.8982 49.85C79.0315 49.7767 79.2015 49.74 79.4082 49.74H81.6682L78.4782 53.55C78.2515 53.85 78.0049 54.08 77.7382 54.24C77.8782 54.34 78.0015 54.4567 78.1082 54.59C78.2215 54.7233 78.3282 54.8667 78.4282 55.02L81.8482 60H79.6182C79.4249 60 79.2582 59.97 79.1182 59.91C78.9782 59.8433 78.8615 59.7267 78.7682 59.56L76.1482 55.67C76.0549 55.5167 75.9582 55.4167 75.8582 55.37C75.7582 55.3233 75.6082 55.3 75.4082 55.3H74.8482V60H72.3782V45.14H74.8482Z" fill="#062341"/>
</svg>
